<svg xmlns="http://www.w3.org/2000/svg"
 xmlns:xlink="http://www.w3.org/1999/xlink"
 width="272px" height="31px"  viewBox="0 0 272 31">
<path fill-rule="evenodd"  fill="#00c5d2"
 d="M33.6427,16.107666 C33.6427,15.201294 33.445374,14.464233 32.154358,14.348022 C32.154358,14.348022 32.154358,12.8927 32.154358,12.8927 C32.154358,12.8927 33.96985,11.845581 33.785156,8.356445 C33.598633,4.8673096 32.23755,2.6568604 32.23755,2.6568604 C31.90216,6.3807373 30.559387,7.270874 29.925842,9.752075 C29.29358,12.232422 32.154358,13.046509 32.154358,13.046509 C32.154358,13.046509 32.154358,14.337402 32.154358,14.337402 C30.86322,14.388916 30.749817,14.976318 30.599121,15.755859 C27.701233,15.226685 26.36731,13.512817 26.36731,13.512817 C29.492126,9.597412 23.990723,8.511841 23.990723,8.511841 C17.144531,6.4960938 13.2751465,1.9984131 13.2751465,1.9984131 C13.685425,3.394043 17.072083,9.0460205 23.210938,13.077515 C25.541382,14.609009 27.312805,14.935425 28.616516,16.204224 C28.616516,16.204224 21.218872,16.204224 21.218872,16.204224 C20.737732,14.935425 19.243164,12.966309 17.03601,13.500488 C14.319641,14.1623535 9.110779,15.192261 1.0,16.004639 C1.0,16.004639 10.005249,16.550293 16.476196,18.103027 C16.476196,18.103027 19.449951,18.74353 21.196777,16.204224 C21.196777,16.204224 28.723755,16.204224 28.723755,16.204224 C27.410583,16.204224 25.610168,17.582642 23.211365,19.15747 C17.072632,23.189697 13.686829,28.602173 13.276306,29.998535 C13.276306,29.998535 17.147034,25.512207 23.993103,23.497314 C23.993103,23.497314 29.497864,22.419922 26.372925,18.503052 C26.372925,18.503052 27.695496,16.799805 30.58136,16.26477 C30.657104,17.133545 30.86322,17.820679 32.154358,17.877197 C32.154358,17.877197 32.154358,18.973389 32.154358,18.973389 C32.154358,18.973389 29.338318,19.788208 29.970581,22.267822 C30.604126,24.75061 31.986023,25.643188 32.32074,29.36377 C32.32074,29.36377 33.595398,27.154175 33.78192,23.66504 C33.967346,20.176758 32.154358,19.128052 32.154358,19.128052 C32.154358,19.128052 32.154358,17.86731 32.154358,17.86731 C33.445374,17.752075 33.6427,17.012451 33.6427,16.107666 ZM263.19177,14.935425 C259.3905,14.413452 256.67786,13.9053955 254.96387,13.488159 C253.432,13.118408 252.25452,13.961914 251.50928,14.935425 C251.50928,14.935425 245.30554,14.935425 245.30554,14.935425 C246.29456,14.442139 247.4458,13.959473 248.78845,13.077515 C254.92737,9.0460205 258.3131,3.5249023 258.72363,2.130127 C258.72363,2.130127 254.8529,6.5616455 248.00671,8.576538 C248.00671,8.576538 242.5022,9.630127 245.62708,13.546265 C245.62708,13.546265 245.07227,14.280884 243.87329,14.935425 C243.87329,14.935425 240.88574,14.935425 240.88574,14.935425 C240.4773,14.595947 240.01453,14.368408 240.01453,14.337402 C240.01453,14.337402 240.01453,14.348022 240.01453,14.348022 C239.36646,14.406128 238.99463,14.620483 238.78406,14.935425 C238.78406,14.935425 237.43237,14.935425 237.43237,14.935425 C237.43237,14.935425 103.33832,14.935425 103.33832,14.935425 C103.33832,14.935425 34.73639,14.935425 34.73639,14.935425 C34.73639,14.935425 34.73639,17.474731 34.73639,17.474731 C34.73639,17.474731 103.80548,17.474731 103.80548,17.474731 C103.80548,17.474731 237.43237,17.474731 237.43237,17.474731 C237.43237,17.474731 238.95422,17.474731 238.95422,17.474731 C239.17859,17.680786 239.5116,17.823242 240.01453,17.86731 C240.01453,17.86731 240.01453,17.877197 240.01453,17.877197 C240.57996,17.852661 240.91345,17.702148 241.12476,17.474731 C241.12476,17.474731 244.49475,17.474731 244.49475,17.474731 C245.28784,18.01294 245.67493,18.50879 245.67493,18.50879 C242.55005,22.42566 248.03076,23.509644 248.03076,23.509644 C254.87683,25.524536 258.7356,29.998535 258.7356,29.998535 C258.32507,28.602173 254.92737,23.189697 248.78845,19.15747 C247.84973,18.541504 247.00635,17.959839 246.24414,17.474731 C246.24414,17.474731 252.1377,17.474731 252.1377,17.474731 C253.75049,18.45227 255.52368,18.037476 255.52368,18.037476 C256.3722,17.833008 257.26477,17.64563 258.17383,17.474731 C258.17383,17.474731 271.0,17.474731 271.0,17.474731 C271.0,17.474731 271.0,14.935425 271.0,14.935425 C271.0,14.935425 263.19177,14.935425 263.19177,14.935425 ZM240.01453,12.8927 C240.01453,12.8927 240.01453,13.046509 240.01453,13.046509 C240.01453,13.046509 242.74597,12.232422 242.11389,9.752075 C241.48035,7.270874 240.05615,6.3807373 239.72131,2.6568604 C239.72131,2.6568604 238.50989,4.8673096 238.32312,8.356445 C238.13855,11.845581 240.01453,12.8927 240.01453,12.8927 ZM240.01453,18.973389 C240.01453,18.973389 240.01453,19.128052 240.01453,19.128052 C240.01453,19.128052 238.1145,20.176758 238.29932,23.66504 C238.48584,27.154175 239.80518,29.36377 239.80518,29.36377 C240.1394,25.643188 241.54578,24.75061 242.17944,22.267822 C242.81165,19.788208 240.01453,18.973389 240.01453,18.973389 Z"/>
</svg>