<svg xmlns="http://www.w3.org/2000/svg"
 xmlns:xlink="http://www.w3.org/1999/xlink"
 width="25px" height="26px"  viewBox="0 0 25 26">
<path fill-rule="evenodd"  fill="#00c5d2"
 d="M12.370361,8.529297 C12.370361,8.529297 12.603394,6.4366455 11.46167,6.4366455 C10.616577,6.4366455 10.785645,5.5915527 10.785645,5.5915527 C10.785645,5.5915527 10.849121,4.4716797 9.433105,4.9796143 C9.433105,4.9796143 9.813599,3.8793945 10.891235,4.534668 C10.891235,4.534668 11.166016,4.2597656 11.081665,4.070801 C11.081665,4.070801 11.800049,4.239258 11.71582,5.126953 C11.71582,5.126953 11.98999,5.7609863 12.074707,5.0631104 C12.159058,4.366089 11.482788,3.8793945 11.482788,3.8793945 C11.482788,3.8793945 11.187012,3.4572754 11.6521,2.9916992 C11.6521,2.9916992 11.71582,3.2878418 11.905762,3.3721924 C11.905762,3.3721924 11.588867,3.055542 12.497681,1.9986572 C12.497681,1.9986572 12.502563,2.0092773 12.502563,2.0092773 C13.411377,3.066162 13.094482,3.383667 13.094482,3.383667 C13.284912,3.2993164 13.348145,3.0031738 13.348145,3.0031738 C13.813232,3.4678955 13.51709,3.8900146 13.51709,3.8900146 C13.51709,3.8900146 12.84082,4.376709 12.925537,5.0737305 C13.009888,5.7716064 13.284912,5.1375732 13.284912,5.1375732 C13.199829,4.25 13.918945,4.0805664 13.918945,4.0805664 C13.834351,4.2703857 14.109009,4.5461426 14.109009,4.5461426 C15.1866455,3.8900146 15.567017,4.989502 15.567017,4.989502 C14.151123,4.4823 14.214355,5.602173 14.214355,5.602173 C14.214355,5.602173 14.383667,6.4472656 13.538086,6.4472656 C12.397339,6.4472656 12.629883,8.539917 12.629883,8.539917 C12.629883,8.539917 12.470825,8.63562 12.370361,8.529297 ZM7.5303955,13.628296 C7.5303955,13.628296 5.4385986,13.395996 5.4385986,14.536377 C5.4385986,15.382324 4.5927734,15.213013 4.5927734,15.213013 C4.5927734,15.213013 3.4729004,15.150757 3.9797363,16.56604 C3.9797363,16.56604 2.8811035,16.185669 3.5361328,15.107422 C3.5361328,15.107422 3.2614746,14.83252 3.071045,14.91687 C3.071045,14.91687 3.2403564,14.198486 4.1280518,14.283569 C4.1280518,14.283569 4.761963,14.008789 4.064331,13.924438 C3.3670654,13.839355 2.8811035,14.515991 2.8811035,14.515991 C2.8811035,14.515991 2.458496,14.812134 1.9934082,14.346558 C1.9934082,14.346558 2.2890625,14.283569 2.3737793,14.093872 C2.3737793,14.093872 2.0570068,14.4104 1.0,13.501587 C1.0,13.501587 1.0106201,13.49585 1.0106201,13.49585 C2.0672607,12.587769 2.3845215,12.905151 2.3845215,12.905151 C2.2998047,12.7146 2.0041504,12.651611 2.0041504,12.651611 C2.4692383,12.186035 2.8917236,12.481445 2.8917236,12.481445 C2.8917236,12.481445 3.3778076,13.157959 4.0751953,13.07373 C4.772461,12.98938 4.138672,12.7146 4.138672,12.7146 C3.2510986,12.799683 3.081787,12.080566 3.081787,12.080566 C3.2720947,12.164795 3.546753,11.889893 3.546753,11.889893 C2.8917236,10.8125 3.9904785,10.432129 3.9904785,10.432129 C3.4832764,11.848267 4.6033936,11.785278 4.6033936,11.785278 C4.6033936,11.785278 5.4484863,11.615112 5.4484863,12.4609375 C5.4484863,13.602173 7.5411377,13.369873 7.5411377,13.369873 C7.5411377,13.369873 7.6361084,13.52771 7.5303955,13.628296 ZM12.629883,18.468872 C12.629883,18.468872 12.397339,20.560669 13.538574,20.560669 C14.383667,20.560669 14.214355,21.405762 14.214355,21.405762 C14.214355,21.405762 14.151123,22.525757 15.567017,22.018555 C15.567017,22.018555 15.1866455,23.117188 14.109009,22.462769 C14.109009,22.462769 13.834351,22.736816 13.918945,22.927368 C13.918945,22.927368 13.200317,22.758911 13.284912,21.870483 C13.284912,21.870483 13.009888,21.237305 12.925537,21.934204 C12.84082,22.63208 13.51709,23.117188 13.51709,23.117188 C13.51709,23.117188 13.813232,23.540894 13.348145,24.005615 C13.348145,24.005615 13.284912,23.709473 13.094482,23.625977 C13.094482,23.625977 13.411377,23.941772 12.503052,24.99878 C12.503052,24.99878 12.497681,24.98816 12.497681,24.98816 C11.588867,23.932007 11.905762,23.615356 11.905762,23.615356 C11.71582,23.698853 11.6521,23.994995 11.6521,23.994995 C11.187012,23.529541 11.483154,23.107422 11.483154,23.107422 C11.483154,23.107422 12.159058,22.62146 12.074707,21.924438 C11.98999,21.226562 11.71582,21.860596 11.71582,21.860596 C11.800049,22.748291 11.081665,22.916748 11.081665,22.916748 C11.166016,22.726929 10.891235,22.452148 10.891235,22.452148 C9.813599,23.107422 9.433105,22.008667 9.433105,22.008667 C10.849121,22.515137 10.786011,21.395996 10.786011,21.395996 C10.786011,21.395996 10.616577,20.550049 11.46167,20.550049 C12.603394,20.550049 12.37085,18.458252 12.37085,18.458252 C12.37085,18.458252 12.529419,18.363403 12.629883,18.468872 ZM17.469849,13.369873 C17.469849,13.369873 19.562134,13.602173 19.562134,12.4609375 C19.562134,11.615112 20.407227,11.784424 20.407227,11.784424 C20.407227,11.784424 21.527344,11.848267 21.020142,10.432129 C21.020142,10.432129 22.119263,10.8125 21.464233,11.889893 C21.464233,11.889893 21.738892,12.164795 21.928833,12.080566 C21.928833,12.080566 21.759888,12.798828 20.872314,12.7146 C20.872314,12.7146 20.23816,12.98938 20.935547,13.07373 C21.633179,13.157959 22.119263,12.481445 22.119263,12.481445 C22.119263,12.481445 22.54187,12.186035 23.006592,12.651611 C23.006592,12.651611 22.710815,12.7146 22.626465,12.905151 C22.626465,12.905151 22.94336,12.586914 24.0,13.49585 C24.0,13.49585 23.989258,13.501587 23.989258,13.501587 C22.932983,14.4104 22.615723,14.093872 22.615723,14.093872 C22.700073,14.283569 22.996216,14.346558 22.996216,14.346558 C22.531128,14.812134 22.10852,14.515991 22.10852,14.515991 C22.10852,14.515991 21.622314,13.839355 20.92517,13.924438 C20.227417,14.008789 20.861572,14.283569 20.861572,14.283569 C21.749512,14.198486 21.91858,14.91687 21.91858,14.91687 C21.728516,14.83252 21.453491,15.107422 21.453491,15.107422 C22.10852,16.185669 21.009766,16.56604 21.009766,16.56604 C21.51709,15.150757 20.39685,15.213013 20.39685,15.213013 C20.39685,15.213013 19.551636,15.382324 19.551636,14.536377 C19.551636,13.395996 17.459229,13.628296 17.459229,13.628296 C17.459229,13.628296 17.364258,13.4696045 17.469849,13.369873 ZM9.80603,9.501221 C9.983398,9.713867 9.832397,9.971558 9.832397,9.971558 C9.6727295,9.065918 8.962769,8.586548 8.696533,8.5686035 C8.430298,8.550537 8.62561,9.048828 8.62561,9.048828 C8.142456,8.184082 7.3618164,8.008179 6.95874,7.992676 C6.973999,8.395996 7.149536,9.176392 8.013916,9.659912 C8.013916,9.659912 7.516968,9.464355 7.534912,9.731079 C7.55249,9.997681 8.03186,10.707031 8.937012,10.86731 C8.937012,10.86731 8.6796875,11.01709 8.466675,10.839478 C8.466675,10.839478 8.466675,11.301758 9.088013,11.674805 C9.640869,12.0061035 10.046265,11.697754 10.115967,11.47522 C10.119019,11.425293 10.1258545,11.398315 10.1258545,11.398315 C10.127808,11.422852 10.124268,11.448242 10.115967,11.47522 C10.106323,11.632202 10.141235,12.02002 10.596313,12.525635 C11.075195,13.058105 11.390381,12.504272 11.390381,12.504272 C11.390381,12.504272 11.570557,12.686768 11.706543,12.874023 C11.706543,12.874023 11.839844,12.740723 11.839844,12.740723 C11.651733,12.60498 11.469727,12.424927 11.469727,12.424927 C11.469727,12.424927 12.017578,12.102661 11.485107,11.624023 C10.979858,11.169189 10.595215,11.136475 10.43811,11.147095 C10.410889,11.155273 10.386841,11.161011 10.363037,11.158569 C10.363037,11.158569 10.390869,11.1521 10.440308,11.148804 C10.662598,11.079224 10.971313,10.675049 10.639648,10.121216 C10.266846,9.501221 9.80603,9.501221 9.80603,9.501221 ZM8.501831,16.203613 C8.714966,16.026123 8.97229,16.17749 8.97229,16.17749 C8.067017,16.337036 7.5877686,17.046265 7.5701904,17.312988 C7.552246,17.578857 8.049438,17.384155 8.049438,17.384155 C7.1851807,17.866821 7.0092773,18.648071 6.9938965,19.051392 C7.3969727,19.035034 8.177734,18.859985 8.660889,17.996094 C8.660889,17.996094 8.465454,18.492676 8.731689,18.47461 C8.998413,18.456665 9.707886,17.978027 9.867676,17.073242 C9.867676,17.073242 10.018677,17.330078 9.841309,17.542847 C9.841309,17.542847 10.30249,17.542847 10.674805,16.921875 C11.007446,16.368896 10.698608,15.963135 10.47644,15.894409 C10.427002,15.891113 10.4001465,15.883789 10.4001465,15.883789 C10.423218,15.881348 10.449585,15.884644 10.47644,15.894409 C10.633545,15.903442 11.021484,15.869019 11.527222,15.41333 C12.059326,14.933228 11.505005,14.619019 11.505005,14.619019 C11.505005,14.619019 11.687012,14.439087 11.875122,14.30249 C11.875122,14.30249 11.741821,14.169067 11.741821,14.169067 C11.606201,14.358032 11.425659,14.539673 11.425659,14.539673 C11.425659,14.539673 11.10437,13.992432 10.625,14.52417 C10.169922,15.029663 10.138062,15.415039 10.147217,15.572144 C10.156128,15.599121 10.161499,15.622803 10.159668,15.646484 C10.159668,15.646484 10.153076,15.618774 10.150024,15.568848 C10.080688,15.347168 9.676147,15.037842 9.122437,15.369995 C8.501465,15.743042 8.501831,16.203613 8.501831,16.203613 ZM15.204956,17.50769 C15.02771,17.294922 15.178223,17.037231 15.178223,17.037231 C15.338379,17.942017 16.047852,18.422241 16.314087,18.439453 C16.580322,18.456665 16.38501,17.960083 16.38501,17.960083 C16.868164,18.824707 17.64917,18.999878 18.051758,19.01538 C18.036621,18.612915 17.861084,17.831665 16.99646,17.348999 C16.99646,17.348999 17.493286,17.543701 17.475708,17.277832 C17.45813,17.01184 16.97876,16.301758 16.073975,16.14148 C16.073975,16.14148 16.330933,15.990967 16.544434,16.168457 C16.544434,16.168457 16.544434,15.707031 15.922974,15.333984 C15.369385,15.001953 14.964478,15.311157 14.89502,15.532837 C14.891602,15.582764 14.884277,15.609741 14.884277,15.609741 C14.882446,15.58606 14.88623,15.560669 14.89502,15.532837 C14.904663,15.375732 14.869385,14.98877 14.414307,14.482422 C13.935059,13.949829 13.619751,14.504517 13.619751,14.504517 C13.619751,14.504517 13.440063,14.3220215 13.304443,14.134766 C13.304443,14.134766 13.171143,14.268066 13.171143,14.268066 C13.358887,14.403076 13.5407715,14.583008 13.5407715,14.583008 C13.5407715,14.583008 12.993408,14.904541 13.525513,15.384766 C14.031128,15.8396 14.415405,15.870728 14.572632,15.861694 C14.600098,15.853516 14.6241455,15.847778 14.647217,15.849365 C14.647217,15.849365 14.619629,15.855957 14.57019,15.859253 C14.348022,15.928711 14.039307,16.33374 14.371094,16.886719 C14.743774,17.508423 15.204956,17.50769 15.204956,17.50769 ZM16.50879,10.805176 C16.296143,10.982666 16.038208,10.831299 16.038208,10.831299 C16.943848,10.671875 17.422852,9.961792 17.44043,9.695068 C17.458496,9.430054 16.961182,9.623901 16.961182,9.623901 C17.825928,9.141235 18.00122,8.359985 18.016968,7.9575195 C17.613647,7.9730225 16.832764,8.148926 16.349731,9.01355 C16.349731,9.01355 16.545044,8.515381 16.27893,8.53418 C16.012573,8.551392 15.303101,9.030762 15.142944,9.935547 C15.142944,9.935547 14.991943,9.678711 15.1698,9.465942 C15.1698,9.465942 14.708252,9.465942 14.335327,10.086914 C14.00354,10.639893 14.312378,11.044922 14.53418,11.11438 C14.58374,11.117676 14.610474,11.125 14.610474,11.125 C14.587402,11.126709 14.561523,11.122559 14.53418,11.11438 C14.377075,11.104614 13.989502,11.1397705 13.483765,11.595459 C12.951294,12.073975 13.505615,12.3897705 13.505615,12.3897705 C13.505615,12.3897705 13.323608,12.569702 13.135864,12.705566 C13.135864,12.705566 13.268433,12.838135 13.268433,12.838135 C13.404785,12.650757 13.584839,12.468262 13.584839,12.468262 C13.584839,12.468262 13.906616,13.0164795 14.385986,12.483887 C14.840698,11.979126 14.872559,11.59375 14.862915,11.4375 C14.854614,11.40979 14.849121,11.385132 14.851074,11.362305 C14.851074,11.362305 14.857544,11.390137 14.860596,11.439209 C14.929932,11.660889 15.334473,11.970093 15.888062,11.638794 C16.509521,11.264893 16.50879,10.805176 16.50879,10.805176 ZM17.665283,19.073486 C17.665283,19.300049 17.849121,19.483276 18.075317,19.483276 C18.30127,19.483276 18.484375,19.300049 18.484375,19.073486 C18.484375,18.847656 18.30127,18.664429 18.075317,18.664429 C17.849121,18.664429 17.665283,18.847656 17.665283,19.073486 ZM18.075317,8.34436 C18.30127,8.34436 18.484375,8.1604 18.484375,7.9345703 C18.484375,7.70874 18.30127,7.523926 18.075317,7.523926 C17.849121,7.523926 17.665283,7.70874 17.665283,7.9345703 C17.665283,8.1604 17.849121,8.34436 18.075317,8.34436 ZM7.345337,7.9345703 C7.345337,7.70874 7.1622314,7.523926 6.935669,7.523926 C6.7093506,7.523926 6.525879,7.70874 6.525879,7.9345703 C6.525879,8.1604 6.7093506,8.34436 6.935669,8.34436 C7.1622314,8.34436 7.345337,8.1604 7.345337,7.9345703 ZM6.9353027,18.664429 C6.7093506,18.664429 6.525879,18.847656 6.525879,19.073486 C6.525879,19.300049 6.7093506,19.483276 6.9353027,19.483276 C7.161865,19.483276 7.345337,19.300049 7.345337,19.073486 C7.345337,18.847656 7.161865,18.664429 6.9353027,18.664429 ZM11.584717,13.537598 C11.584717,14.064331 12.011475,14.491455 12.53833,14.491455 C13.065063,14.491455 13.4921875,14.064331 13.4921875,13.537598 C13.4921875,13.010742 13.065063,12.583618 12.53833,12.583618 C12.011475,12.583618 11.584717,13.010742 11.584717,13.537598 Z"/>
</svg>