<svg xmlns="http://www.w3.org/2000/svg"
 xmlns:xlink="http://www.w3.org/1999/xlink"
 width="212px" height="25px"  viewBox="0 0 212 25">
<path fill-rule="evenodd"  fill="#ff3a2d"
 d="M193.80652,10.489746 C191.94965,11.726807 190.55609,12.401611 189.53961,12.770508 C189.53961,12.770508 195.36603,12.770508 195.36603,12.770508 C196.71814,10.586426 199.02002,11.370117 199.02002,11.370117 C204.02911,12.588135 210.99982,13.105957 210.99982,13.105957 C204.72144,13.743164 200.68933,14.65625 198.58673,15.175781 C196.87823,15.59375 195.72137,13.905273 195.349,13.258057 C195.349,13.258057 189.62256,13.258057 189.62256,13.258057 C190.63171,13.63208 192.0025,14.30542 193.80652,15.5078125 C198.55835,18.67212 201.17926,22.90332 201.49695,23.998535 C201.49695,23.998535 198.5008,20.467773 193.20135,18.886475 C193.20135,18.886475 188.94043,18.033203 191.35925,14.958984 C191.35925,14.958984 190.32227,13.614014 188.0791,13.198486 C187.96252,13.811279 187.46869,14.2717285 186.86652,14.311768 C186.86652,14.311768 186.86652,15.325439 186.86652,15.325439 C186.86652,15.325439 189.05505,15.964355 188.56561,17.911377 C188.0752,19.860107 187.01001,20.558594 186.7508,23.48169 C186.7508,23.48169 185.62805,21.746582 185.48346,19.007568 C185.34064,16.268555 186.60785,15.446533 186.60785,15.446533 C186.60785,15.446533 186.60785,14.304443 186.60785,14.304443 C185.95782,14.212158 185.45581,13.6345215 185.45581,12.922852 C185.45581,12.211914 185.95782,11.631836 186.60785,11.540283 C186.60785,11.540283 186.60785,10.55127 186.60785,10.55127 C186.60785,10.55127 185.34064,9.729004 185.48346,6.98999 C185.62805,4.2512207 186.7508,2.5151367 186.7508,2.5151367 C187.01001,5.4365234 188.0752,6.1376953 188.56561,8.086182 C189.05505,10.033203 186.86652,10.673096 186.86652,10.673096 C186.86652,10.673096 186.86652,11.532959 186.86652,11.532959 C187.51642,11.577881 188.03424,12.114502 188.09271,12.796875 C190.32672,12.376221 191.35925,11.037842 191.35925,11.037842 C188.94043,7.9628906 193.20135,7.111084 193.20135,7.111084 C198.5008,5.529785 201.49695,1.9990234 201.49695,1.9990234 C201.17926,3.0952148 198.55835,7.3254395 193.80652,10.489746 ZM1.9997864,11.850342 C1.9997864,11.850342 184.88531,11.850342 184.88531,11.850342 C184.88531,11.850342 184.88531,13.842285 184.88531,13.842285 C184.88531,13.842285 1.9997864,13.842285 1.9997864,13.842285 C1.9997864,13.842285 1.9997864,11.850342 1.9997864,11.850342 Z"/>
</svg>